PathFileType	4	(x/y/z)	S09_M20_T07
DataRate	CameraRate	NumFrames	NumMarkers	Units	OrigDataRate	OrigDataStartFrame	OrigNumFrames
240	240	5	51	mm	240	286	570
Frame#	Time	Sternum			R.Acromium			L.Acromium			Top.Head			R.ASIS			L.ASIS			R.PSIS			L.PSIS			R.Great.Tro			L.Great.Tro			R.Iliac.Crest			L.Iliac.Crest			V.Sacral			R.Thigh.Upper.Post			R.Thigh.Lower.Ant			R.Thigh.Lower.Post			R.Thigh.Upper.Ant			R.Knee.Lat			R.Knee.Med			R.Shank.Upper.Post			R.Shank.Lower.Ant			R.Shank.Lower.Post			R.Shank.Upper.Ant			R.Ankle.Lat			R.Ankle.Med			R.Heel.Upper			R.Heel.Med			R.Heel.Lat			R.Toe.Lat			R.Toe.Med			R.Toe.Tip			L.Thigh.Upper.Post			L.Thigh.Lower.Ant			L.Thigh.Lower.Post			L.Thigh.Upper.Ant			L.Knee.Lat			L.Knee.Med			L.Shank.Upper.Post			L.Shank.Lower.Ant			L.Shank.Lower.Post			L.Shank.Upper.Ant			L.Ankle.Lat			L.Ankle.Med			L.Heel.Upper			L.Heel.Med			L.Heel.Lat			L.Toe.Lat			L.Toe.Med			L.Toe.Tip			Cervical.Spine			Back			
		X1	Y1	Z1	X2	Y2	Z2	X3	Y3	Z3	X4	Y4	Z4	X5	Y5	Z5	X6	Y6	Z6	X7	Y7	Z7	X8	Y8	Z8	X9	Y9	Z9	X10	Y10	Z10	X11	Y11	Z11	X12	Y12	Z12	X13	Y13	Z13	X14	Y14	Z14	X15	Y15	Z15	X16	Y16	Z16	X17	Y17	Z17	X18	Y18	Z18	X19	Y19	Z19	X20	Y20	Z20	X21	Y21	Z21	X22	Y22	Z22	X23	Y23	Z23	X24	Y24	Z24	X25	Y25	Z25	X26	Y26	Z26	X27	Y27	Z27	X28	Y28	Z28	X29	Y29	Z29	X30	Y30	Z30	X31	Y31	Z31	X32	Y32	Z32	X33	Y33	Z33	X34	Y34	Z34	X35	Y35	Z35	X36	Y36	Z36	X37	Y37	Z37	X38	Y38	Z38	X39	Y39	Z39	X40	Y40	Z40	X41	Y41	Z41	X42	Y42	Z42	X43	Y43	Z43	X44	Y44	Z44	X45	Y45	Z45	X46	Y46	Z46	X47	Y47	Z47	X48	Y48	Z48	X49	Y49	Z49	X50	Y50	Z50	X51	Y51	Z51	

286	1.1875	627.55	1194.1	325.74	504.33	1448.4	468.4	501.72	1435.7	160.82	475.56	1734.5	300.28	600.11	1030.4	431.73	581.19	1028.7	184.17	373.94	1050.9	367.1	375.32	1048.6	277.09	526.88	941.66	505.97	514.82	936.12	117.67	507.97	1108.6	483.9	467.91	1116.6	152.58	355.33	1014.6	320.05	529.36	684.6	464.38	596.73	588.8	408.38	520.56	595.95	431.04	598.03	673.02	444.36	571.27	514.9	397.3	548.36	514.3	278.08	475.89	349.99	407.71	531.01	281.31	383.66	458.6	275.94	395.21	540.48	353.44	399.03	448.68	96.862	367.51	465.48	103.08	276.5	377.01	83.842	319.43	383.84	50.009	291.62	378.64	54.959	356.74	539.87	42.361	400.69	584	39.45	292.73	634.15	54.126	336.78	535.35	672.79	147.2	638.76	604.35	128.11	577.66	591.37	156.35	599.33	683.17	114.19	636.96	527.35	135.08	678.49	531.73	267.66	552.91	425.78	130.25	579.53	318.33	134.3	525.6	353.77	136.81	607.07	391.27	129.01	468.18	162.61	155.31	497.15	147.72	244.11	396.19	139.53	218.94	406.45	110.34	247.68	386.09	114.84	189.54	539.92	68.916	106.64	593.63	56.27	206.07	635.96	64.858	141.71	NaN	NaN	NaN	369.03	1226.5	315.32
287	1.1917	631.75	1193.9	326.01	508.83	1448.3	468.4	506.3	1435.5	160.79	480.43	1734.5	300.07	604	1030.3	432	585.95	1028.9	184.35	378.03	1051	366.73	379.68	1048.6	276.73	530.25	941.53	506.03	519.82	936.38	117.72	511.81	1108.5	483.92	472.51	1116.7	152.57	359.57	1014.7	319.63	531.54	684.59	464.32	598.57	588.41	408.61	522.41	595.97	431.02	600.19	672.62	444.54	572.8	514.6	397.44	550.25	514.08	278.15	476.82	350.03	407.67	531.66	281.19	383.67	459.27	276.05	395.18	541.39	353.27	399.06	448.82	96.999	367.44	465.67	103.15	276.41	377.09	83.925	319.27	383.89	50.041	291.56	378.69	55.107	356.63	539.92	42.342	400.66	584.07	39.382	292.74	634.25	53.935	336.83	541.77	673.12	147.07	645.65	605.34	128.55	584.44	591.99	156.48	605.86	683.88	114.43	644.47	528.14	135.6	685.18	532.91	268.46	562.26	424.75	130.37	591.11	317.87	134.25	536.44	352.18	136.68	617.1	391.39	129.19	482.95	159.75	154.61	512.25	145.2	243.41	411.44	134.98	218.14	422.32	105.93	246.78	401.89	110.11	188.7	556.71	67.695	105.75	610.65	55.923	205.17	652.84	65.583	140.83	NaN	NaN	NaN	373.27	1226.7	315.32
288	1.1958	635.96	1193.6	326.27	513.33	1448.2	468.41	510.9	1435.3	160.76	485.29	1734.4	299.85	607.88	1030.1	432.28	590.73	1029	184.52	382.12	1051.1	366.34	384.05	1048.6	276.35	533.61	941.38	506.09	524.8	936.61	117.76	515.65	1108.4	483.93	477.14	1116.7	152.56	363.8	1014.7	319.19	533.75	684.56	464.25	600.43	588	408.83	524.28	595.97	430.98	602.37	672.21	444.7	574.35	514.29	397.58	552.13	513.85	278.21	477.76	350.06	407.63	532.33	281.07	383.67	459.96	276.16	395.15	542.33	353.1	399.09	448.95	97.139	367.38	465.87	103.22	276.32	377.17	84.01	319.12	383.96	50.075	291.51	378.74	55.262	356.52	539.96	42.322	400.64	584.14	39.307	292.74	634.35	53.743	336.89	548.12	673.41	146.99	652.45	606.27	129.02	591.1	592.58	156.65	612.29	684.53	114.7	651.9	528.89	136.14	691.79	534.03	269.26	571.57	423.7	130.5	602.65	317.44	134.22	547.27	350.62	136.55	627.08	391.52	129.37	497.78	156.97	153.92	527.4	142.78	242.72	426.78	130.54	217.35	438.28	101.66	245.91	417.78	105.5	187.88	573.51	66.589	104.88	627.66	55.708	204.29	669.68	66.42	139.99	NaN	NaN	NaN	377.51	1226.8	315.31
289	1.2	640.17	1193.3	326.53	517.82	1448.1	468.41	515.49	1435	160.72	490.15	1734.3	299.63	611.76	1030	432.57	595.55	1029.2	184.7	386.21	1051.1	365.93	388.42	1048.6	275.94	536.97	941.22	506.13	529.76	936.81	117.8	519.47	1108.3	483.93	481.79	1116.7	152.55	368.04	1014.7	318.71	535.97	684.52	464.18	602.31	587.59	409.04	526.18	595.96	430.94	604.57	671.79	444.86	575.92	513.97	397.7	554.01	513.6	278.27	478.73	350.1	407.58	533.02	280.94	383.67	460.66	276.28	395.11	543.28	352.92	399.1	449.09	97.283	367.32	466.08	103.28	276.23	377.26	84.099	318.97	384.03	50.111	291.45	378.8	55.422	356.42	540	42.302	400.61	584.19	39.227	292.76	634.44	53.55	336.95	554.37	673.66	146.96	659.15	607.13	129.52	597.65	593.12	156.87	618.62	685.13	115	659.23	529.61	136.7	698.31	535.11	270.07	580.86	422.65	130.63	614.15	317.06	134.2	558.09	349.07	136.43	637	391.66	129.56	512.65	154.29	153.25	542.57	140.47	242.03	442.2	126.23	216.55	454.3	97.528	245.04	433.74	101.02	187.06	590.3	65.604	104.05	644.65	55.632	203.46	686.47	67.375	139.18	NaN	NaN	NaN	381.76	1226.8	315.28
290	1.2042	644.38	1193	326.78	522.32	1448	468.41	520.1	1434.7	160.68	495	1734.2	299.4	615.63	1029.8	432.87	600.38	1029.3	184.89	390.31	1051.1	365.49	392.79	1048.5	275.51	540.33	941.04	506.17	534.7	936.97	117.83	523.28	1108.2	483.92	486.47	1116.8	152.53	372.29	1014.7	318.21	538.22	684.46	464.09	604.2	587.17	409.23	528.09	595.95	430.89	606.79	671.36	445	577.52	513.65	397.81	555.89	513.35	278.31	479.71	350.13	407.53	533.72	280.8	383.66	461.39	276.39	395.07	544.25	352.73	399.11	449.22	97.431	367.26	466.31	103.34	276.15	377.35	84.193	318.82	384.12	50.15	291.4	378.86	55.589	356.31	540.04	42.281	400.58	584.23	39.14	292.77	634.53	53.356	337.01	560.55	673.87	146.97	665.76	607.93	130.05	604.11	593.61	157.13	624.86	685.68	115.32	666.47	530.28	137.26	704.74	536.13	270.89	590.1	421.59	130.77	625.62	316.73	134.19	568.88	347.55	136.31	646.85	391.82	129.77	527.57	151.72	152.59	557.77	138.28	241.36	457.69	122.05	215.76	470.39	93.548	244.2	449.77	96.683	186.26	607.08	64.748	103.25	661.6	55.699	202.67	703.22	68.454	138.41	NaN	NaN	NaN	386	1226.9	315.23
